<svg width="60" height="60" viewBox="0 0 60 60" fill="none" xmlns="http://www.w3.org/2000/svg">
<rect x="0.5" y="0.5" width="59" height="59" stroke="#CCCCCC"/>
<path d="M22.325 21.2C22.325 21.4167 22.4083 21.6083 22.575 21.775L32.4 31.6L22.575 41.425C22.4083 41.5917 22.325 41.7833 22.325 42C22.325 42.2167 22.4083 42.4083 22.575 42.575L23.825 43.825C23.9917 43.9917 24.1833 44.075 24.4 44.075C24.6167 44.075 24.8083 43.9917 24.975 43.825L36.625 32.175C36.7917 32.0083 36.875 31.8167 36.875 31.6C36.875 31.3833 36.7917 31.1917 36.625 31.025L24.975 19.375C24.8083 19.2083 24.6167 19.125 24.4 19.125C24.1833 19.125 23.9917 19.2083 23.825 19.375L22.575 20.625C22.4083 20.7917 22.325 20.9833 22.325 21.2Z" fill="#292628"/>
</svg>
