<svg width="30" height="30" viewBox="0 0 30 30" fill="none" xmlns="http://www.w3.org/2000/svg">
<circle cx="15" cy="15" r="15" fill="#F2994A"/>
<path d="M22.9159 9.52194L21.6086 8.09477C21.582 8.06455 21.5497 8.04053 21.5139 8.02424C21.4781 8.00794 21.4394 7.99973 21.4004 8.00011C21.3614 7.99895 21.3225 8.00681 21.2866 8.02316C21.2506 8.0395 21.2184 8.06394 21.1923 8.09477L12.1271 17.784L8.82853 14.284C8.80171 14.2541 8.76943 14.2302 8.73364 14.2139C8.69785 14.1976 8.65931 14.1892 8.62037 14.1892C8.58142 14.1892 8.54289 14.1976 8.5071 14.2139C8.47131 14.2302 8.43903 14.2541 8.41221 14.284L7.08891 15.6869C7.06076 15.7162 7.0384 15.7511 7.02313 15.7897C7.00786 15.8282 7 15.8696 7 15.9115C7 15.9533 7.00786 15.9947 7.02313 16.0332C7.0384 16.0718 7.06076 16.1067 7.08891 16.136L11.2498 20.551C11.4754 20.8122 11.7861 20.9727 12.119 21C12.4459 20.969 12.7517 20.8154 12.9814 20.5668H12.9883L22.9228 9.97097C22.9737 9.90828 23.0012 9.82787 23 9.74507C22.9987 9.66227 22.9688 9.58285 22.9159 9.52194Z" fill="white"/>
</svg>
