<svg width="41" height="32" viewBox="0 0 41 32" fill="none" xmlns="http://www.w3.org/2000/svg">
<path d="M35.7368 0.00524902C35.1718 0.00524902 5.9483 0.00524902 5.78448 0.00524902C4.22436 0.00524902 2.95508 1.27453 2.95508 2.83473V24.0578C2.95508 25.4377 3.97764 26.6335 5.3384 26.8516L5.84799 27.2584H35.2336L36.1829 26.8516C37.5437 26.6335 38.5662 25.4377 38.5662 24.0578C38.5662 23.3517 38.5662 3.47338 38.5662 2.83465C38.5662 1.27453 37.297 0.00524902 35.7368 0.00524902Z" fill="#365E7D"/>
<path d="M5.65415 24.0579V2.83473C5.65415 1.27453 6.92342 0.00524902 8.48354 0.00524902C6.83596 0.00524902 5.81466 0.00524902 5.78448 0.00524902C4.22436 0.00524902 2.95508 1.27453 2.95508 2.83473V24.0579C2.95508 25.4378 3.97764 26.6336 5.3384 26.8516L5.84799 27.2585H8.54705L8.03747 26.8516C6.67663 26.6336 5.65415 25.4378 5.65415 24.0579Z" fill="#2B4D66"/>
<path d="M35.6803 5.00281H6.01052L5.49707 5.53879V23.8251C5.49707 24.1055 5.72432 24.3328 6.00469 24.3328H35.517C35.7973 24.3328 36.0247 24.1055 36.0247 23.8251C36.0247 23.3457 36.0247 6.09361 36.0247 5.53879L35.6803 5.00281Z" fill="#E4F6FF"/>
<path d="M8.79697 23.8251V5.53879L9.31042 5.00281H6.01052L5.49707 5.53879V23.8251C5.49707 24.1055 5.72432 24.3328 6.00469 24.3328H9.30459C9.02422 24.3328 8.79697 24.1055 8.79697 23.8251Z" fill="#D3EFFB"/>
<path d="M8.79697 2.52795H6.00469C5.72432 2.52795 5.49707 2.75529 5.49707 3.03565V5.53867H8.79697L9.01406 5.30708V2.6891L8.79697 2.52795Z" fill="#DD636E"/>
<path d="M35.5189 2.52795C34.2079 2.52795 9.83778 2.52795 8.79883 2.52795V5.53867H36.0265V3.03565C36.0265 2.75529 35.7993 2.52795 35.5189 2.52795Z" fill="#B1E4F9"/>
<path d="M15.2531 9.16479H9.32575C9.03475 9.16479 8.79883 9.40072 8.79883 9.69172V20.7071H15.7799V9.69164C15.7799 9.40064 15.5441 9.16479 15.2531 9.16479Z" fill="#3F6D8E"/>
<path d="M11.1656 9.16479H9.32575C9.03475 9.16479 8.79883 9.40072 8.79883 9.69164V20.707H10.6387V9.69164C10.6387 9.40064 10.8745 9.16479 11.1656 9.16479Z" fill="#365E7D"/>
<path d="M13.4887 20.7067V18.538C13.4887 18.4377 13.4074 18.3564 13.3072 18.3564H11.2646C11.1642 18.3564 11.083 18.4378 11.083 18.538V20.7067H13.4887Z" fill="#E4F6FF"/>
<path d="M12.4675 18.3564H11.2646C11.1642 18.3564 11.083 18.4378 11.083 18.538V20.7067H12.2859V18.538C12.2859 18.4378 12.3672 18.3564 12.4675 18.3564Z" fill="#D3EFFB"/>
<path d="M40.461 26.851H1.06126C0.800361 26.851 0.588867 27.0645 0.588867 27.328V28.9688C0.588867 30.1862 1.57534 31.1823 2.78103 31.1823H38.7413C39.947 31.1823 40.9334 30.1862 40.9334 28.9688V27.328C40.9334 27.0645 40.7219 26.851 40.461 26.851Z" fill="#407093"/>
<path d="M5.49735 28.9688V27.328C5.49735 27.0645 5.70884 26.851 5.96974 26.851H1.06126C0.800361 26.851 0.588867 27.0645 0.588867 27.328V28.9688C0.588867 30.1862 1.57534 31.1823 2.78103 31.1823H7.68959C6.48382 31.1823 5.49735 30.1862 5.49735 28.9688Z" fill="#365E7D"/>
<path d="M14.875 26.851V27.9518C14.875 28.4928 15.3134 28.9355 15.8492 28.9355H25.6702C26.206 28.9355 26.6443 28.4928 26.6443 27.9518V26.851H14.875Z" fill="#5C90B9"/>
<path d="M19.7835 27.9518V26.851H14.875V27.9518C14.875 28.4928 15.3134 28.9355 15.8492 28.9355H20.7577C20.2219 28.9356 19.7835 28.4928 19.7835 27.9518Z" fill="#4A80AA"/>
<path d="M22.5707 20.7075V14.5413C22.5707 14.441 22.4894 14.3597 22.3892 14.3597H20.3466C20.2463 14.3597 20.165 14.4411 20.165 14.5413V20.7075H22.5707Z" fill="#DD636E"/>
<path d="M27.3823 20.7071V12.3084C27.3823 12.2081 27.3009 12.1268 27.2007 12.1268H25.1581C25.0578 12.1268 24.9766 12.2082 24.9766 12.3084V20.7071H27.3823Z" fill="#FFAA5B"/>
<path d="M32.1928 20.7067V10.0755C32.1928 9.97516 32.1115 9.89392 32.0113 9.89392H29.9687C29.8683 9.89392 29.7871 9.97524 29.7871 10.0755V20.7067H32.1928Z" fill="#B3E59F"/>
<path d="M21.713 14.3597H20.3466C20.2463 14.3597 20.165 14.4411 20.165 14.5413V20.7075H21.5315V14.5413C21.5315 14.441 21.6127 14.3597 21.713 14.3597Z" fill="#DA4A54"/>
<path d="M26.5245 12.1268H25.1581C25.0578 12.1268 24.9766 12.2082 24.9766 12.3084V20.7071H26.343V12.3084C26.343 12.2081 26.4243 12.1268 26.5245 12.1268Z" fill="#FF9838"/>
<path d="M31.3351 9.89392H29.9687C29.8684 9.89392 29.7871 9.97524 29.7871 10.0755V20.7067H31.1535V10.0755C31.1535 9.97516 31.2349 9.89392 31.3351 9.89392Z" fill="#95D6A4"/>
<path d="M32.8071 21.3143H19.5551C19.2189 21.3143 18.9463 21.0417 18.9463 20.7055C18.9463 20.3692 19.2189 20.0967 19.5551 20.0967H32.8071C33.1433 20.0967 33.4159 20.3692 33.4159 20.7055C33.4159 21.0417 33.1433 21.3143 32.8071 21.3143Z" fill="#B1E4F9"/>
<path d="M16.3879 21.3143H8.20938C7.87315 21.3143 7.60059 21.0417 7.60059 20.7055C7.60059 20.3692 7.87315 20.0967 8.20938 20.0967H16.3878C16.724 20.0967 16.9966 20.3692 16.9966 20.7055C16.9967 21.0418 16.7241 21.3143 16.3879 21.3143Z" fill="#B3E59F"/>
<path d="M13.6401 16.6858H10.934C10.5978 16.6858 10.3252 16.4133 10.3252 16.0771C10.3252 15.7407 10.5978 15.4683 10.934 15.4683H13.6401C13.9763 15.4683 14.2489 15.7408 14.2489 16.0771C14.2489 16.4133 13.9763 16.6858 13.6401 16.6858Z" fill="#B1E4F9"/>
<path d="M13.6401 14.4546H10.934C10.5978 14.4546 10.3252 14.1821 10.3252 13.8459C10.3252 13.5095 10.5978 13.2371 10.934 13.2371H13.6401C13.9763 13.2371 14.2489 13.5096 14.2489 13.8459C14.2489 14.1821 13.9763 14.4546 13.6401 14.4546Z" fill="#B1E4F9"/>
<path d="M13.6401 12.2205H10.934C10.5978 12.2205 10.3252 11.948 10.3252 11.6117C10.3252 11.2754 10.5978 11.0029 10.934 11.0029H13.6401C13.9763 11.0029 14.2489 11.2755 14.2489 11.6117C14.2489 11.948 13.9763 12.2205 13.6401 12.2205Z" fill="#B1E4F9"/>
</svg>
