<svg width="32" height="32" viewBox="0 0 32 32" fill="none" xmlns="http://www.w3.org/2000/svg">
<path d="M28.1016 15.8209V11.6639C28.1016 9.942 26.7057 8.54614 24.9838 8.54614H17.3763C16.9848 8.54614 16.6694 8.86656 16.6699 9.25811C16.6705 9.73459 16.7464 10.1935 16.8851 10.6247H2.16161C0.996963 10.6247 0.0208453 11.5778 0.0423406 12.7422C0.063166 13.8716 0.986185 14.7817 2.12044 14.7817H4.19897V27.2526H22.9054H24.9838C26.7059 27.2526 28.1016 25.8569 28.1016 24.1349H30.3059C30.8103 24.1349 31.2193 23.7259 31.2193 23.2215V16.7343C31.2193 16.2298 30.8103 15.8209 30.3059 15.8209H28.1016Z" fill="#FFDCC8"/>
<path d="M20.1434 0.2323H6.96146C5.43833 0.2323 4.19922 1.47142 4.19922 2.99448V28.6474C4.19922 30.1704 5.43839 31.4095 6.96146 31.4095H20.1434C21.6664 31.4095 22.9056 30.1704 22.9056 28.6474V2.99448C22.9056 1.47142 21.6664 0.2323 20.1434 0.2323V0.2323Z" fill="#00366D"/>
<path d="M22.9059 28.6474V2.99448C22.9059 1.47142 21.6668 0.2323 20.1437 0.2323H13.5527V31.4096H20.1437C21.6668 31.4096 22.9059 30.1705 22.9059 28.6474Z" fill="#01223C"/>
<path d="M20.0348 2.05908H18.9916V3.10236C18.9916 4.68748 17.7066 5.97244 16.1215 5.97244H10.9821C9.39699 5.97244 8.11202 4.68748 8.11202 3.10236V2.05908H7.06873C6.49348 2.05908 6.02539 2.52711 6.02539 3.10236V28.5395C6.02539 29.1147 6.49348 29.5827 7.06873 29.5827H20.0348C20.6101 29.5827 21.0782 29.1147 21.0782 28.5395V3.10236C21.0782 2.52711 20.6101 2.05908 20.0348 2.05908Z" fill="#5FF9FE"/>
<path d="M21.0791 28.5395V3.10236C21.0791 2.52711 20.611 2.05908 20.0358 2.05908H18.9925V3.10236C18.9925 4.68747 17.7075 5.97244 16.1224 5.97244H13.5527V29.5828H20.0358C20.611 29.5828 21.0791 29.1148 21.0791 28.5395Z" fill="#00DDE7"/>
<path d="M4.19858 27.2528C5.34649 27.2528 6.27705 26.3222 6.27705 25.1743C6.27705 24.0264 5.34649 23.0958 4.19858 23.0958C3.05068 23.0958 2.12012 24.0264 2.12012 25.1743C2.12012 26.3222 3.05068 27.2528 4.19858 27.2528Z" fill="#FFC5BB"/>
<path d="M6.79692 18.9387C7.94427 18.9387 8.87545 18.0075 8.87545 16.8602C8.87545 15.7129 7.94427 14.7817 6.79692 14.7817H2.63999C1.49264 14.7817 0.561523 15.7129 0.561523 16.8602C0.561523 18.0075 1.49264 18.9387 2.63999 18.9387H3.67925C2.5319 18.9387 1.60079 19.8699 1.60079 21.0171C1.60079 22.1644 2.53197 23.0956 3.67925 23.0956H6.79698C7.94433 23.0956 8.87551 22.1644 8.87551 21.0171C8.87551 19.8699 7.94427 18.9387 6.79692 18.9387Z" fill="#FFC5BB"/>
<path d="M15.5085 27.4961H11.595C11.0906 27.4961 10.6816 27.0871 10.6816 26.5827C10.6816 26.0783 11.0906 25.6693 11.595 25.6693H15.5085C16.0129 25.6693 16.4219 26.0783 16.4219 26.5827C16.4219 27.0871 16.0129 27.4961 15.5085 27.4961Z" fill="#00DDE7"/>
<path d="M16.4228 26.5827C16.4228 26.0783 16.0139 25.6693 15.5094 25.6693H13.5527V27.4961H15.5094C16.0139 27.4961 16.4228 27.0872 16.4228 26.5827Z" fill="#00BDCD"/>
<path d="M28.1016 14.4812V11.6639C28.1016 9.942 26.7057 8.54614 24.9839 8.54614H17.3763C16.9863 8.54614 16.6699 8.86254 16.6699 9.25262C16.6699 11.7283 18.684 13.7424 21.1597 13.7424H22.9053V27.2526H24.9839C26.7059 27.2526 28.1016 25.8569 28.1016 24.1349H30.3059C30.8104 24.1349 31.2193 23.7259 31.2193 23.2215V15.3946C31.2193 14.8902 30.8104 14.4812 30.3059 14.4812H28.1016Z" fill="#FFC5BB"/>
<path d="M6.79776 18.939H3.68003C2.53268 18.939 1.60156 19.8701 1.60156 21.0174C1.60156 22.1647 2.53274 23.0959 3.68003 23.0959H6.79776C7.94511 23.0959 8.87629 22.1647 8.87629 21.0174C8.87629 19.8701 7.94511 18.939 6.79776 18.939Z" fill="#FFADAD"/>
<path d="M22.9062 18.9387V27.2526H24.9847C26.7068 27.2526 28.1024 25.8569 28.1024 24.1349H30.3068C30.8112 24.1349 31.2202 23.726 31.2202 23.2215V18.9387H22.9062Z" fill="#FFADAD"/>
</svg>
