<svg width="32" height="32" viewBox="0 0 32 32" fill="none" xmlns="http://www.w3.org/2000/svg">
<path d="M15.6316 31.5158C24.241 31.5158 31.2203 24.5365 31.2203 15.9272C31.2203 7.31778 24.241 0.338501 15.6316 0.338501C7.02225 0.338501 0.0429688 7.31778 0.0429688 15.9272C0.0429688 24.5365 7.02225 31.5158 15.6316 31.5158Z" fill="#7584F2"/>
<path d="M31.2197 15.9273C31.2197 15.876 31.2195 15.8247 31.219 15.7735L22.4137 6.96826L8.99889 19.6131L12.6886 23.3029L6.63672 26.5287L10.8899 30.7819C12.385 31.2586 13.9779 31.5159 15.6311 31.5159C24.2404 31.5159 31.2197 24.5367 31.2197 15.9273Z" fill="#4855B7"/>
<path d="M15.6311 20.2198C11.4924 20.2198 7.96809 22.8492 6.63672 26.5285H24.6254C23.294 22.8492 19.7697 20.2198 15.6311 20.2198Z" fill="#E9EDF5"/>
<path d="M15.6387 20.2198V26.5284H24.6257C23.2951 22.8513 19.7742 20.223 15.6387 20.2198Z" fill="#CDD2E1"/>
<path d="M15.6307 22.4293C20.7219 22.4293 24.8492 18.302 24.8492 13.2107C24.8492 8.11948 20.7219 3.99219 15.6307 3.99219C10.5394 3.99219 6.41211 8.11948 6.41211 13.2107C6.41211 18.302 10.5394 22.4293 15.6307 22.4293Z" fill="white"/>
<path d="M24.8499 13.2109C24.8499 8.12202 20.7265 3.99639 15.6387 3.99243V22.4294C20.7265 22.4253 24.8499 18.2996 24.8499 13.2109Z" fill="#E9EDF5"/>
<path d="M15.632 17.914C18.2295 17.914 20.3352 15.8083 20.3352 13.2107C20.3352 10.6132 18.2295 8.50745 15.632 8.50745C13.0344 8.50745 10.9287 10.6132 10.9287 13.2107C10.9287 15.8083 13.0344 17.914 15.632 17.914Z" fill="#CDD2E1"/>
<path d="M20.3346 13.2105C20.3346 10.6154 18.2328 8.51147 15.6387 8.50745V17.9136C18.2328 17.9096 20.3346 15.8056 20.3346 13.2105Z" fill="#AFB4C8"/>
<path d="M15.6308 16.0095C17.1765 16.0095 18.4296 14.7565 18.4296 13.2108C18.4296 11.665 17.1765 10.412 15.6308 10.412C14.0851 10.412 12.832 11.665 12.832 13.2108C12.832 14.7565 14.0851 16.0095 15.6308 16.0095Z" fill="#555A66"/>
<path d="M18.4301 13.2106C18.4301 11.6673 17.181 10.416 15.6387 10.412V16.0091C17.181 16.0051 18.4301 14.7538 18.4301 13.2106Z" fill="#333940"/>
<path d="M14.527 13.2046C15.0882 13.2046 15.5432 12.7496 15.5432 12.1884C15.5432 11.6271 15.0882 11.1721 14.527 11.1721C13.9657 11.1721 13.5107 11.6271 13.5107 12.1884C13.5107 12.7496 13.9657 13.2046 14.527 13.2046Z" fill="white"/>
</svg>
