<svg width="38" height="32" viewBox="0 0 38 32" fill="none" xmlns="http://www.w3.org/2000/svg">
<path d="M19.2343 31.8488C21.1031 31.8488 22.6181 30.3338 22.6181 28.4651C22.6181 26.5963 21.1031 25.0813 19.2343 25.0813C17.3655 25.0813 15.8506 26.5963 15.8506 28.4651C15.8506 30.3338 17.3655 31.8488 19.2343 31.8488Z" fill="#8AC9FE"/>
<path d="M22.6183 28.4652C22.6183 30.3347 21.1032 31.8489 19.2346 31.8489C17.9732 31.8489 16.8729 31.1589 16.291 30.1354C16.6879 30.2854 17.1198 30.363 17.5696 30.3517C19.4375 30.3055 20.9144 28.7539 20.869 26.8852C20.8548 26.3079 20.6967 25.7686 20.4303 25.2993C21.709 25.782 22.6183 27.0181 22.6183 28.4652Z" fill="#60B7FF"/>
<path d="M32.8902 17.962C34.0386 16.7533 33.8727 14.8169 32.5413 13.8132C28.8502 11.0305 24.2633 9.37289 19.2903 9.34842V9.34705C19.2717 9.34705 19.2532 9.3477 19.2346 9.34777C19.216 9.3477 19.1975 9.34705 19.1789 9.34705V9.34842C14.2059 9.37289 9.61898 11.0305 5.92785 13.8132C4.59646 14.8168 4.43053 16.7533 5.57898 17.962C6.55138 18.9855 8.13976 19.1255 9.26621 18.2746C12.0407 16.1788 15.4923 14.9319 19.2347 14.9195C22.977 14.9319 26.4286 16.1787 29.2031 18.2746C30.3294 19.1255 31.9179 18.9855 32.8902 17.962Z" fill="#8AC9FE"/>
<path d="M19.2352 17.1622C16.4291 17.1622 13.8043 17.9392 11.5646 19.2896C10.0565 20.1989 9.7073 22.2373 10.8065 23.6131C11.7231 24.7605 13.3454 25.0465 14.6053 24.2918C15.9589 23.4812 17.5426 23.0153 19.2352 23.0153C20.9277 23.0153 22.5114 23.4813 23.865 24.2918C25.125 25.0464 26.7472 24.7605 27.6639 23.6131C28.763 22.2372 28.4138 20.1988 26.9058 19.2896C24.666 17.9391 22.0413 17.1622 19.2352 17.1622Z" fill="#8AC9FE"/>
<path d="M19.2349 0.671997C13.4422 0.671997 6.75604 2.37651 2.0881 5.62278C0.57797 6.673 0.2459 8.76821 1.36959 10.2245C2.41757 11.5827 4.34244 11.8677 5.75274 10.8909C9.4181 8.35202 14.7832 7.03829 19.235 7.03829C23.6867 7.03829 29.0518 8.3521 32.7172 10.8909C34.1275 11.8677 36.0524 11.5827 37.1004 10.2245C38.224 8.76814 37.892 6.673 36.3818 5.62278C31.7138 2.37651 25.0276 0.671997 19.2349 0.671997Z" fill="#8AC9FE"/>
<path d="M37.7676 8.27046C37.7676 8.95226 37.5513 9.64007 37.1 10.2241C36.0527 11.5825 34.1274 11.8675 32.7175 10.8903C29.0518 8.35175 23.6868 7.03817 19.2349 7.03817C14.783 7.03817 9.41805 8.35175 5.7524 10.8903C5.18997 11.2804 4.54545 11.4692 3.90687 11.4692C2.94606 11.4692 1.99944 11.0402 1.36983 10.2241C0.629102 9.26485 0.520946 8.02881 0.964791 6.9964C1.07295 7.24927 1.21766 7.49324 1.39742 7.71997C2.02847 8.51515 2.9617 8.93069 3.90832 8.93069C4.56029 8.93069 5.219 8.73377 5.78889 8.32721C9.42023 5.7395 14.7666 4.35345 19.2184 4.2938C23.6695 4.23415 29.0517 5.47541 32.7509 7.96466C34.1742 8.92251 36.095 8.61215 37.1245 7.23957C37.2326 7.09486 37.3274 6.94413 37.4072 6.78899C37.6453 7.24847 37.7676 7.75798 37.7676 8.27046Z" fill="#60B7FF"/>
<path d="M32.89 17.9628C31.918 18.9863 30.3291 19.1266 29.2027 18.2754C26.4284 16.1793 22.9768 14.9328 19.2343 14.92C15.4919 14.9327 12.0403 16.1793 9.26602 18.2754C8.7707 18.6499 8.18583 18.8326 7.60328 18.8326C6.86103 18.8326 6.12326 18.5365 5.57872 17.9628C5.03193 17.3877 4.78355 16.6484 4.81634 15.9226C4.83871 15.9465 4.86188 15.9703 4.88569 15.9942C5.42727 16.5343 6.14187 16.8103 6.85878 16.8103C7.46602 16.8103 8.07398 16.6127 8.58045 16.2091C11.2988 14.0406 14.716 12.7031 18.4562 12.5919C22.198 12.5054 25.6809 13.6609 28.5104 15.6832C29.6584 16.5038 31.2428 16.3217 32.188 15.273C32.511 14.9142 32.7228 14.4964 32.8265 14.0615C33.8903 15.111 33.9507 16.8469 32.89 17.9628Z" fill="#60B7FF"/>
<path d="M28.3051 21.7831C28.3051 22.4224 28.097 23.0699 27.6629 23.6129C26.7461 24.7602 25.1244 25.0467 23.8644 24.2918C22.5105 23.4809 20.9268 23.0154 19.2343 23.0154C17.5417 23.0154 15.958 23.4809 14.6041 24.2918C14.1319 24.5745 13.609 24.711 13.092 24.711C12.2282 24.711 11.3793 24.3306 10.8056 23.6129C10.5617 23.3079 10.3894 22.9699 10.2842 22.6185C10.7556 22.9161 11.3002 23.0705 11.85 23.0705C12.3916 23.0705 12.9383 22.9206 13.4255 22.6125C14.5495 21.9017 15.8299 21.4573 17.1354 21.2258C18.3071 21.018 19.2861 21.0287 20.4561 21.1518C21.3363 21.2445 22.2218 21.4547 23.0505 21.7651C23.8721 22.073 24.6956 22.5909 25.589 22.1648C26.4542 21.752 27.0608 20.7976 27.0608 19.839C27.0608 19.6801 27.0482 19.5212 27.0228 19.3645C27.859 19.9242 28.3051 20.8462 28.3051 21.7831Z" fill="#60B7FF"/>
</svg>
