<svg width="60" height="60" viewBox="0 0 60 60" fill="none" xmlns="http://www.w3.org/2000/svg">
<path d="M13.75 17.5001H41.2501C41.941 17.5001 42.5001 16.941 42.5001 16.25C42.5001 15.5591 41.941 15 41.2501 15H13.75C13.0591 15 12.5 15.5591 12.5 16.25C12.5001 16.9411 13.0592 17.5001 13.75 17.5001Z" fill="black"/>
<path d="M28.7501 30H13.75C13.0591 30 12.5 30.5591 12.5 31.25C12.5 31.941 13.0591 32.5001 13.75 32.5001H28.7501C29.441 32.5001 30.0001 31.941 30.0001 31.25C30.0001 30.5591 29.441 30 28.7501 30Z" fill="black"/>
<path d="M55.2149 7.50004C55.1425 7.50004 55.0723 7.5182 55.0001 7.5216V7.50004C55.0001 4.7425 52.7564 2.5 50 2.5H5.00004C2.24367 2.5 0 4.7425 0 7.50004V56.25C0 56.7555 0.305156 57.2119 0.771445 57.4048C0.925313 57.4695 1.08879 57.5001 1.24992 57.5001C1.57465 57.5001 1.89445 57.3732 2.13375 57.1339L14.2676 45H50C52.7564 45 55.0001 42.7577 55.0001 40V19.267L58.5987 15.6689C58.5987 15.6689 58.5987 15.6689 58.5987 15.6678C59.4898 14.7767 60 13.5437 60 12.2852C60 9.64609 57.8541 7.50004 55.2149 7.50004ZM52.5 40C52.5 41.3781 51.3793 42.5 50 42.5H13.75C13.418 42.5 13.1005 42.6318 12.8661 42.8662L2.49996 53.2325V7.50004C2.49996 6.12191 3.62063 5.00008 4.99992 5.00008H49.9999C51.3795 5.00008 52.5 6.12191 52.5 7.50004V8.35387C52.2627 8.51699 52.0357 8.69641 51.8311 8.90137L38.2303 22.5H13.75C13.059 22.5 12.4999 23.0591 12.4999 23.7501C12.4999 24.441 13.059 25.0001 13.75 25.0001H36.2248L35.0244 31.0048C34.9414 31.415 35.0708 31.8386 35.3662 32.1339C35.6031 32.3707 35.9229 32.5001 36.2501 32.5001C36.3307 32.5001 36.4137 32.4916 36.4942 32.4757L42.7418 31.2257C42.9859 31.1768 43.2081 31.0585 43.3814 30.8839L52.5 21.7667V40ZM41.8823 28.8489L37.8443 29.657L38.6524 25.6141L49.9995 14.267L53.2323 17.4999L41.8823 28.8489ZM56.831 13.9014L55 15.7325L51.7669 12.4994L53.5985 10.6677C54.0233 10.2441 54.6117 10 55.2148 10C56.4745 10 57.4999 11.0254 57.4999 12.2852C57.5 12.8857 57.2558 13.4754 56.831 13.9014Z" fill="black"/>
</svg>
