<svg width="60" height="60" viewBox="0 0 60 60" fill="none" xmlns="http://www.w3.org/2000/svg">
<g clip-path="url(#clip0)">
<path d="M50.9745 32.8918C50.9695 30.8849 50.4966 28.9125 49.5948 27.122L51.666 25.0509C53.2187 23.4982 53.2187 20.9716 51.666 19.4188C50.8915 18.6443 49.8748 18.2563 48.8574 18.2544C48.856 17.1927 48.442 16.1949 47.6912 15.444C46.9162 14.6691 45.8987 14.281 44.8807 14.2796C44.8793 13.2616 44.4912 12.2441 43.7162 11.4691C42.9658 10.7188 41.9685 10.3048 40.9077 10.3029C40.9057 9.24204 40.4918 8.2448 39.7414 7.49434C38.9892 6.74213 37.989 6.32788 36.9254 6.32788C35.8617 6.32788 34.8615 6.74213 34.1094 7.49434L30.0014 11.6024L27.7155 9.31646C26.9633 8.56424 25.9633 8.14999 24.8995 8.14999C23.8357 8.14999 22.8356 8.56424 22.0835 9.31646C21.3326 10.0674 20.9187 11.0652 20.9172 12.1269C19.8999 12.1288 18.8831 12.5168 18.1086 13.2913C17.3581 14.0417 16.9442 15.0388 16.9422 16.0998C15.8814 16.1018 14.8841 16.5157 14.1337 17.2662C12.8514 18.5484 12.6292 20.4943 13.4646 22.008C12.8893 22.196 12.3482 22.5173 11.8917 22.9738C10.339 24.5266 10.339 27.0531 11.8917 28.606L13.5504 30.2647L0.372015 43.4431C-0.0855934 43.9007 -0.0855934 44.6428 0.372015 45.1005C0.600877 45.3292 0.900754 45.4437 1.20063 45.4437C1.50051 45.4437 1.8005 45.3292 2.02925 45.1005L10.9627 36.167L19.3313 44.5355L5.92718 57.9396C5.46957 58.3973 5.46957 59.1393 5.92718 59.597C6.15604 59.8257 6.45592 59.9402 6.7558 59.9402C7.05567 59.9402 7.35567 59.8257 7.58441 59.597L25.7017 41.4797C26.0355 41.146 26.4154 40.8755 26.8265 40.6721L29.6619 42.5396C31.5372 43.7748 33.8236 44.2573 36.028 43.9004L51.7843 59.6568C52.0132 59.8855 52.3131 60 52.6129 60C52.9128 60 53.2128 59.8855 53.4416 59.6568C53.8992 59.1992 53.8992 58.4571 53.4416 57.9994L44.2995 48.8573L45.4046 47.7522C45.8623 47.2945 45.8623 46.5525 45.4046 46.0948C44.947 45.6373 44.205 45.6373 43.7473 46.0948L42.6421 47.2L40.0546 44.6124L49.7174 34.9494L52.3051 37.5371L51.2024 38.6398C50.7448 39.0976 50.7448 39.8395 51.2024 40.2972C51.4312 40.5259 51.7311 40.6404 52.031 40.6404C52.3309 40.6404 52.6309 40.5259 52.8596 40.2972L53.9623 39.1945L57.9988 43.2309C58.2276 43.4597 58.5275 43.5742 58.8274 43.5742C59.1273 43.5742 59.4273 43.4597 59.656 43.2309C60.1136 42.7733 60.1136 42.0313 59.656 41.5736L50.9745 32.8918ZM35.7666 9.15158C36.0761 8.84209 36.4877 8.67159 36.9254 8.67159C37.363 8.67159 37.7746 8.84209 38.0841 9.15158C38.3937 9.46106 38.5641 9.87262 38.5641 10.3103C38.5641 10.7481 38.3936 11.1597 38.0841 11.4691L35.5089 14.0443C35.0513 14.5019 35.0513 15.2439 35.5089 15.7016C35.9666 16.1594 36.7086 16.1593 37.1663 15.7016L39.7414 13.1265C40.0509 12.8169 40.4625 12.6465 40.9003 12.6465C41.338 12.6465 41.7495 12.817 42.059 13.1265C42.698 13.7655 42.698 14.8051 42.059 15.4441L38.1267 19.3763C37.6691 19.8339 37.6691 20.576 38.1267 21.0337C38.3556 21.2626 38.6555 21.3769 38.9554 21.3769C39.2552 21.3769 39.5552 21.2626 39.784 21.0337L43.7162 17.1014C44.0257 16.7918 44.4373 16.6214 44.875 16.6214C45.3128 16.6214 45.7243 16.7919 46.0338 17.1014C46.3433 17.4109 46.5138 17.8225 46.5138 18.2601C46.5138 18.6978 46.3433 19.1094 46.0338 19.4189L42.1015 23.3511C41.6439 23.8088 41.6439 24.5508 42.1015 25.0085C42.3304 25.2374 42.6303 25.3517 42.9302 25.3517C43.23 25.3517 43.53 25.2374 43.7588 25.0085L47.6909 21.0762C48.3298 20.4372 49.3696 20.4373 50.0085 21.0762C50.6475 21.7152 50.6475 22.7549 50.0085 23.3938L40.3224 33.0799C37.2213 36.1812 33.098 37.8891 28.712 37.8891C27.5243 37.8891 26.385 38.2019 25.3864 38.7863L18.6036 32.0035C19.1255 31.8064 19.6046 31.4997 20.011 31.0933C20.7619 30.3424 21.1758 29.3446 21.1773 28.2829C22.1946 28.281 23.2114 27.8929 23.9859 27.1184C24.7604 26.3439 25.1484 25.3272 25.1502 24.3098C26.2119 24.3084 27.2099 23.8944 27.9607 23.1435C28.7352 22.369 29.1232 21.3523 29.125 20.3349C30.1867 20.3335 31.1846 19.9195 31.9354 19.1687C32.6876 18.4165 33.1018 17.4164 33.1018 16.3526C33.1018 15.2888 32.6876 14.2887 31.9354 13.5365L31.6582 13.2594L35.7666 9.15158ZM23.7407 10.9737C24.0502 10.6642 24.4618 10.4937 24.8995 10.4937C25.3371 10.4937 25.7487 10.6642 26.0582 10.9737L30.2785 15.1939C30.588 15.5034 30.7585 15.9149 30.7585 16.3526C30.7585 16.7903 30.588 17.2018 30.2785 17.5115C29.969 17.8209 29.5575 17.9914 29.1198 17.9914C28.6822 17.9914 28.2709 17.8211 27.9614 17.5118C27.9613 17.5117 27.9612 17.5116 27.961 17.5113L23.7407 13.2911C23.4312 12.9817 23.2607 12.5701 23.2607 12.1324C23.2607 11.6947 23.4311 11.2833 23.7407 10.9737ZM19.7658 14.9485C20.0854 14.6289 20.5049 14.4693 20.9247 14.4693C21.3443 14.4693 21.7641 14.629 22.0834 14.9485L26.3036 19.1687C26.9426 19.8077 26.9425 20.8474 26.3036 21.4864C25.9941 21.7959 25.5825 21.9664 25.1448 21.9664C24.7073 21.9664 24.296 21.796 23.9865 21.4867C23.9864 21.4866 23.9862 21.4865 23.9861 21.4863L19.7659 17.2661C19.4563 16.9566 19.2859 16.545 19.2859 16.1072C19.2858 15.6695 19.4563 15.2581 19.7658 14.9485ZM15.791 18.9234C16.1005 18.6138 16.512 18.4434 16.9497 18.4434C17.3875 18.4434 17.7991 18.6139 18.1086 18.9234L22.3288 23.1436C22.9678 23.7826 22.9678 24.8223 22.3288 25.4612C21.6898 26.1001 20.6501 26.1002 20.0111 25.4612L15.7909 21.241C15.152 20.6021 15.152 19.5623 15.791 18.9234ZM13.5489 24.631C13.8685 24.3115 14.2881 24.1519 14.7077 24.1519C15.1268 24.1519 15.5461 24.3114 15.8653 24.63L18.3538 27.1185C18.6633 27.428 18.8338 27.8396 18.8338 28.2773C18.8338 28.7149 18.6633 29.1265 18.3538 29.4361C18.0444 29.7457 17.6328 29.9161 17.195 29.9161C16.7577 29.9161 16.3463 29.7458 16.0369 29.4367L16.0363 29.4361L13.5489 26.9487C12.91 26.3096 12.91 25.2699 13.5489 24.631ZM12.6201 34.5096L15.2078 31.922L23.5764 40.2905L20.9888 42.8782L12.6201 34.5096ZM37.2421 41.7998C36.9535 41.5113 36.5356 41.3931 36.139 41.4893C34.3654 41.9162 32.4745 41.5858 30.9511 40.5823L30.3165 40.1642C34.7232 39.7934 38.817 37.9002 41.9799 34.7371L47.8282 28.889C48.3312 30.1048 48.6026 31.4042 48.6276 32.7251L38.3976 42.9553L37.2421 41.7998Z" fill="black"/>
<path d="M47.4732 42.369C47.2553 42.587 47.1299 42.8881 47.1299 43.1975C47.1299 43.5057 47.2553 43.8081 47.4732 44.0259C47.6912 44.2439 47.9936 44.3694 48.3018 44.3694C48.6111 44.3694 48.9123 44.244 49.1303 44.0259C49.3482 43.8081 49.4736 43.5057 49.4736 43.1975C49.4736 42.888 49.3482 42.587 49.1303 42.369C48.9123 42.151 48.61 42.0256 48.3018 42.0256C47.9936 42.0256 47.6912 42.151 47.4732 42.369Z" fill="black"/>
<path d="M7.9175 9.57396C8.14636 9.80282 8.44624 9.91719 8.74611 9.91719C9.04599 9.91719 9.34599 9.80282 9.57473 9.57396C10.0323 9.11635 10.0323 8.37433 9.57473 7.9166L4.05871 2.40058C3.6011 1.94297 2.85908 1.94297 2.40136 2.40058C1.94363 2.85819 1.94375 3.6002 2.40136 4.05793L7.9175 9.57396Z" fill="black"/>
<path d="M14.2969 6.38847C14.9441 6.38847 15.4687 5.86383 15.4687 5.21662V1.17185C15.4687 0.524638 14.9441 0 14.2969 0C13.6496 0 13.125 0.524638 13.125 1.17185V5.21662C13.125 5.86383 13.6496 6.38847 14.2969 6.38847Z" fill="black"/>
<path d="M1.17234 15.4685H5.2171C5.86432 15.4685 6.38896 14.9438 6.38896 14.2966C6.38896 13.6494 5.86432 13.1248 5.2171 13.1248H1.17234C0.525127 13.1248 0.000488281 13.6494 0.000488281 14.2966C0.000488281 14.9438 0.525127 15.4685 1.17234 15.4685Z" fill="black"/>
<path d="M51.254 9.91723C51.5539 9.91723 51.8538 9.80286 52.0826 9.574L57.5986 4.05797C58.0562 3.60037 58.0562 2.85835 57.5986 2.40062C57.141 1.9429 56.399 1.94301 55.9413 2.40062L50.4252 7.91665C49.9676 8.37426 49.9676 9.11627 50.4252 9.574C50.6542 9.80286 50.9541 9.91723 51.254 9.91723Z" fill="black"/>
<path d="M45.7026 6.38847C46.3498 6.38847 46.8745 5.86383 46.8745 5.21662V1.17185C46.8745 0.524638 46.3498 0 45.7026 0C45.0554 0 44.5308 0.524638 44.5308 1.17185V5.21662C44.5308 5.86383 45.0554 6.38847 45.7026 6.38847Z" fill="black"/>
<path d="M53.6108 14.2966C53.6108 14.9438 54.1355 15.4685 54.7827 15.4685H58.8275C59.4747 15.4685 59.9993 14.9438 59.9993 14.2966C59.9993 13.6494 59.4747 13.1248 58.8275 13.1248H54.7827C54.1355 13.1248 53.6108 13.6494 53.6108 14.2966Z" fill="black"/>
</g>
<defs>
<clipPath id="clip0">
<rect width="60" height="60" fill="white"/>
</clipPath>
</defs>
</svg>
