<svg width="60" height="60" viewBox="0 0 60 60" fill="none" xmlns="http://www.w3.org/2000/svg">
<path d="M15.4479 12.813C14.3226 11.65 12.7721 10.9954 11.1539 11H10.8459C9.22925 10.9968 7.68101 11.6513 6.55688 12.813C5.49939 13.9003 4.93789 15.3759 5.00489 16.891L5.12189 19.583C5.29914 22.6635 7.87676 25.0545 10.9619 25H11.0379C14.123 25.0545 16.7006 22.6635 16.8779 19.583L16.9999 16.891C17.0669 15.3759 16.5054 13.9003 15.4479 12.813ZM14.8799 19.5C14.7444 21.5079 13.0496 23.0518 11.0379 23H10.9619C8.95013 23.0518 7.25538 21.5079 7.11988 19.5L7.08488 18.683C8.99113 18.5981 10.8215 17.9113 12.3129 16.721C12.9279 17.6305 13.8562 18.2816 14.9209 18.55L14.8799 19.5ZM13.6259 14.773C13.5702 14.3465 13.248 14.0034 12.8259 13.921C12.4052 13.834 11.9765 14.0278 11.7639 14.401C11.7509 14.422 10.5099 16.385 7.00788 16.685C6.99926 15.7585 7.35563 14.8659 7.99988 14.2C8.7465 13.4306 9.77375 12.9975 10.8459 13H11.1539C12.226 12.9975 13.2532 13.4306 13.9999 14.2C14.5832 14.8079 14.9295 15.6048 14.9759 16.446C14.2839 16.1368 13.7819 15.5148 13.6259 14.773Z" fill="black"/>
<path d="M54.4479 36.813C53.3227 35.65 51.7722 34.9954 50.1539 35H49.8459C48.2293 34.9968 46.681 35.6513 45.5569 36.813C44.4994 37.9003 43.9378 39.3759 44.0049 40.891L44.1219 43.583C44.2992 46.6635 46.8768 49.0545 49.9619 49H50.0379C53.123 49.0545 55.7007 46.6635 55.8779 43.583L55.9999 40.891C56.0669 39.3759 55.5054 37.9003 54.4479 36.813ZM53.9999 40.81L53.8799 43.5C53.7444 45.5079 52.0497 47.0517 50.0379 47H49.9619C47.9502 47.0517 46.2554 45.5079 46.1199 43.5L45.9999 40.805C45.9613 39.8361 46.3229 38.8941 46.9999 38.2C47.7465 37.4306 48.7738 36.9975 49.8459 37H50.1539C51.226 36.9975 52.2533 37.4306 52.9999 38.2C53.6782 38.8954 54.0399 39.8395 53.9999 40.81Z" fill="black"/>
<path d="M30.8917 14.5431C29.8187 13.5052 28.1159 13.5052 27.0429 14.5431L15.879 25.707C15.6912 25.8948 15.4365 26.0003 15.171 26H4.99999C2.23999 26.0033 0.00324999 28.24 0 31V45C0 46.6569 1.34312 48 2.99999 48C3.34062 48 3.67874 47.9421 3.99999 47.829V49C3.99999 49.5522 4.44774 50 4.99999 50H17C17.5522 50 18 49.5522 18 49V32.786C17.9998 32.533 18.0956 32.2893 18.268 32.104L30.9569 18.457C32.0198 17.3583 31.9905 15.6059 30.8917 14.5431ZM29.5288 17.0587C29.5252 17.0622 29.5216 17.0657 29.5179 17.069L16.8 30.743C16.285 31.2986 15.9991 32.0284 16 32.786V48H5.99998V33C5.99998 32.4478 5.55224 32 4.99999 32C4.44774 32 3.99999 32.4478 3.99999 33V45C3.99999 45.5522 3.55224 46 2.99999 46C2.44774 46 1.99999 45.5522 1.99999 45V31C1.99999 29.3431 3.34312 28 4.99999 28H15.171C15.9673 28.0025 16.7316 27.686 17.293 27.121L28.4569 15.957C28.7613 15.6683 29.2386 15.6683 29.5429 15.957C29.8432 16.2652 29.8369 16.7584 29.5288 17.0587Z" fill="black"/>
<path d="M11 29C10.4477 29 10 29.4477 10 30V42C10 42.5522 10.4477 43 11 43C11.5522 43 12 42.5522 12 42V30C12 29.4477 11.5522 29 11 29Z" fill="black"/>
<path d="M32.4429 36.8128C31.3188 35.651 29.7705 34.9965 28.1539 34.9998H27.8459C26.2293 34.9965 24.681 35.651 23.5569 36.8128C22.4994 37.9 21.9378 39.3756 22.0049 40.8907L22.1219 43.5827C22.2992 46.6632 24.8768 49.0542 27.9619 48.9997H28.0379C31.123 49.0542 33.7006 46.6632 33.8779 43.5827L33.9949 40.8907C34.062 39.3756 33.5004 37.9 32.4429 36.8128ZM31.9999 40.8098L31.8799 43.4997C31.7444 45.5076 30.0496 47.0515 28.0379 46.9997H27.9619C25.9501 47.0515 24.2554 45.5076 24.1199 43.4997L23.9999 40.8047C23.9613 39.8359 24.3229 38.8939 24.9999 38.1998C25.7465 37.4304 26.7738 36.9973 27.8459 36.9998H28.1539C29.226 36.9973 30.2533 37.4304 30.9999 38.1998C31.6781 38.8951 32.0399 39.8393 31.9999 40.8098Z" fill="black"/>
<path d="M33.167 50H22.833C20.165 50.0027 18.0027 52.165 18 54.833V59C18 59.5522 18.4477 60 19 60C19.5522 60 20 59.5522 20 59V54.833C20.0016 53.269 21.2691 52.0016 22.833 52H33.167C34.731 52.0016 35.9983 53.269 36 54.833V59C36 59.5522 36.4477 60 37 60C37.5522 60 38 59.5522 38 59V54.833C37.9972 52.165 35.835 50.0027 33.167 50Z" fill="black"/>
<path d="M55.167 50H44.833C42.165 50.0027 40.0027 52.165 40 54.833V59C40 59.5522 40.4477 60 41 60C41.5522 60 42 59.5522 42 59V54.833C42.0016 53.269 43.2691 52.0016 44.833 52H55.167C56.731 52.0016 57.9983 53.269 58 54.833V59C58 59.5522 58.4477 60 59 60C59.5522 60 60 59.5522 60 59V54.833C59.9972 52.165 57.835 50.0027 55.167 50Z" fill="black"/>
<path d="M57.05 0H21.9501C20.3079 0.016 18.9885 1.35787 19.0001 2.99999V18C19.0001 18.5522 19.4478 19 20.0001 19C20.5523 19 21.0001 18.5522 21.0001 18V5.99999H58V29.9999C58.0129 30.5381 57.5881 30.9852 57.05 30.9999H22.9251C22.3728 30.9999 21.9251 31.4477 21.9251 31.9999C21.9251 32.5522 22.3728 32.9999 22.9251 32.9999H57.05C58.6921 32.9839 60.0116 31.6421 60 29.9999V2.99999C60.0116 1.35787 58.6921 0.016 57.05 0ZM58 3.99999H21.0001V2.99999C20.9872 2.46187 21.4119 2.01475 21.9501 2H57.05C57.5881 2.01475 58.0129 2.46187 58 2.99999V3.99999Z" fill="black"/>
<path d="M55 12.75C54.4477 12.75 54 13.1977 54 13.75V28C54 28.5522 54.4477 29 55 29C55.5522 29 56 28.5522 56 28V13.75C56 13.1977 55.5522 12.75 55 12.75Z" fill="black"/>
<path d="M51 19C50.4477 19 50 19.4477 50 20V28C50 28.5522 50.4477 29 51 29C51.5522 29 52 28.5522 52 28V20C52 19.4477 51.5522 19 51 19Z" fill="black"/>
<path d="M47 17C46.4477 17 46 17.4477 46 18V28C46 28.5522 46.4477 29 47 29C47.5523 29 48 28.5522 48 28V18C48 17.4477 47.5523 17 47 17Z" fill="black"/>
<path d="M43 23C42.4477 23 42 23.4477 42 24V28C42 28.5522 42.4477 29 43 29C43.5522 29 44 28.5522 44 28V24C44 23.4477 43.5522 23 43 23Z" fill="black"/>
<path d="M55.555 8.16798C55.0955 7.86148 54.4745 7.98548 54.168 8.44498L50.754 13.565L47.6 11.2C47.1599 10.8663 46.5327 10.9528 46.1991 11.393C46.1611 11.4431 46.1279 11.4966 46.1 11.553L42.2061 19.342L38.4001 22.2C37.9582 22.5313 37.8687 23.1581 38.2001 23.5999C38.5314 24.0418 39.1582 24.1313 39.6001 23.7999L43.6001 20.8C43.7261 20.7072 43.8288 20.5863 43.9001 20.447L47.363 13.519L50.4 15.8C50.8418 16.1313 51.4687 16.042 51.8 15.6001C51.8112 15.5853 51.8218 15.5702 51.832 15.555L55.832 9.55498C56.1385 9.09548 56.0145 8.47448 55.555 8.16798Z" fill="black"/>
<path d="M36 8H24C23.4477 8 23 8.44775 23 9C23 9.55225 23.4477 10 24 10H36C36.5522 10 37 9.55225 37 9C37 8.44775 36.5522 8 36 8Z" fill="black"/>
<path d="M42 8H40C39.4477 8 39 8.44775 39 9C39 9.55225 39.4477 10 40 10H42C42.5522 10 43 9.55225 43 9C43 8.44775 42.5522 8 42 8Z" fill="black"/>
</svg>
